<svg width="80" height="80" viewBox="0 0 80 80" fill="none" xmlns="http://www.w3.org/2000/svg">
<rect width="80" height="80" rx="24" fill="#043A3A"/>
<g clip-path="url(#clip0_401_178)">
<path d="M48.85 53.2C48.85 53.05 48.85 53.05 48.7 52.9C48.55 52.6 48.55 52.45 48.4 52.15V52C47.65 50.2 46.15 48.7 44.2 48.1L37.75 46V43C38.5 42.4 39.25 41.8 39.85 41.05H40C42.55 41.05 44.5 38.95 44.5 36.55V33.4C44.5 32.2 43.45 31.15 42.25 31.15L43 29.05C43.3 27.85 43 26.8 42.25 25.9C41.65 25.15 40.9 24.7 40 24.55C39.85 23.5 39.25 22.45 38.5 21.7C37.45 20.8 36.25 20.5 34.9 20.65L25.9 22.15C24.55 22.3 23.5 22.9 22.9 23.95C22.15 24.85 21.85 26.05 22.15 27.4L23.05 31H22.75C21.55 31 20.5 32.05 20.5 33.25V34.75C20.5 35.95 21.55 37 22.75 37H23.65C24.1 39.4 25.45 41.5 27.4 42.85V45.85L20.95 47.95C19 48.55 17.5 50.05 16.75 51.85C16.6 52.15 16.6 52.3 16.45 52.6C16.45 52.75 16.45 52.75 16.3 52.9C16.3 53.05 16.15 53.35 16.15 53.5C16 54.1 16 54.4 16 54.7V60.25C16 60.7 16.3 61 16.75 61H48.1C48.55 61 48.85 60.7 48.85 60.25V54.7C48.85 54.4 48.85 54.1 48.7 53.65C48.85 53.5 48.85 53.35 48.85 53.2ZM40.6 39.25C40.9 38.5 41.2 37.75 41.35 37H42.25C42.55 37 42.7 37 43 36.85C42.7 38.05 41.8 38.95 40.6 39.25ZM42.25 32.5C42.7 32.5 43 32.8 43 33.25V34.75C43 35.2 42.7 35.5 42.25 35.5H41.5V33.25V33.1L41.65 32.5H42.25ZM24.1 24.7C24.55 24.1 25.3 23.65 26.05 23.5L35.05 22C35.95 21.85 36.85 22.15 37.45 22.6C38.05 23.05 38.5 24.1 38.5 25C38.5 25.45 38.8 25.75 39.25 25.75C40 25.75 40.6 26.05 41.05 26.65C41.5 27.25 41.65 27.85 41.5 28.45L40.3 32.05C40 32.05 39.7 31.75 39.7 31.45V29.05C39.7 28.45 39.4 28 38.95 27.85C38.5 27.55 37.9 27.7 37.45 28C35.05 29.8 31.9 30.55 28.9 29.95L27.4 29.65C26.35 29.65 25.3 30.55 25.3 31.75C25.3 32.05 25.15 32.2 24.85 32.35L23.5 27.1C23.35 26.2 23.65 25.45 24.1 24.7ZM23.5 35.5H22.75C22.3 35.5 22 35.2 22 34.75V33.25C22 32.8 22.3 32.5 22.75 32.5H23.35L23.5 33.1V35.5ZM25 35.5V33.7C26.05 33.55 26.8 32.8 26.8 31.75C26.8 31.45 27.1 31.15 27.25 31.15L28.6 31.45C31.9 32.05 35.35 31.3 38.2 29.35V31.75C38.2 32.8 38.95 33.7 40 33.7V35.5C40 37 39.55 38.2 38.95 39.4H34.75C34.3 39.4 34 39.7 34 40.15C34 40.6 34.3 40.9 34.75 40.9H37.75C36.4 42.1 34.45 43 32.5 43C28.3 43 25 39.55 25 35.5ZM32.5 44.5C33.85 44.5 35.05 44.2 36.1 43.75V45.85C36.1 47.35 33.7 48.85 32.5 49.45C31.3 48.85 28.9 47.35 28.9 45.85V43.75C29.95 44.2 31.15 44.5 32.5 44.5ZM21.25 49.45L27.7 47.35C28.75 49.3 31.75 50.65 32.05 50.8H32.65C33.1 50.65 35.95 49.3 37 47.35L43.45 49.45C44.35 49.75 45.25 50.35 45.85 50.95C42.55 52 40 55.3 40 59.05V59.5H25V59.05C25 55.3 22.45 52 19 51.1C19.6 50.35 20.35 49.75 21.25 49.45ZM17.5 59.5V54.7C17.5 54.25 17.5 53.95 17.65 53.5V53.35C17.8 52.9 17.8 52.6 18.1 52.3C21.25 52.9 23.5 55.75 23.5 59.05V59.5H17.5ZM47.5 59.5H41.5V59.05C41.5 55.75 43.9 53.05 47.05 52.3C47.2 52.6 47.35 53.05 47.5 53.35V53.5C47.65 53.95 47.65 54.25 47.65 54.7V59.5H47.5Z" fill="white"/>
<path d="M64 31C64 28.9 63.4 26.95 62.5 25.15V25L62.35 24.85C61.3 23.05 59.65 21.4 57.85 20.5C56.2 19.6 54.25 19 52.15 19C50.05 19 48.1 19.6 46.3 20.5H46.15H46C44.8 21.25 43.75 22.15 42.85 23.2C42.55 23.5 42.7 23.95 43 24.25C43.3 24.55 43.75 24.55 44.05 24.1C44.65 23.35 45.4 22.6 46.3 22.15L46.6 22.75C46.75 23.05 47.05 23.2 47.2 23.2C47.35 23.2 47.5 23.2 47.5 23.05C47.8 22.9 47.95 22.45 47.8 22L47.5 21.55C48.7 20.95 49.9 20.65 51.25 20.5V22.75C51.25 23.2 51.55 23.5 52 23.5C52.45 23.5 52.75 23.2 52.75 22.75V20.5C54.1 20.65 55.3 20.95 56.35 21.4L56.05 22C55.9 22.3 56.05 22.75 56.35 23.05C56.5 23.05 56.65 23.2 56.65 23.2C56.95 23.2 57.1 23.05 57.25 22.75L57.55 22.15C58.75 22.9 59.8 23.95 60.55 25.15L59.95 25.45C59.65 25.6 59.5 26.05 59.65 26.5C59.8 26.8 60.1 26.95 60.25 26.95C60.4 26.95 60.55 26.95 60.55 26.8L61.45 26.5C62.05 27.7 62.35 28.9 62.5 30.25H60.25C59.8 30.1 59.5 30.55 59.5 31C59.5 31.45 59.8 31.75 60.25 31.75H62.5C62.35 33.1 62.05 34.3 61.6 35.35L61 35.05C60.7 34.9 60.25 35.05 59.95 35.35C59.8 35.65 59.95 36.1 60.25 36.4L60.85 36.7C60.1 37.9 59.05 38.95 57.85 39.7L57.55 39.1C57.4 38.8 56.95 38.65 56.5 38.8C56.2 38.95 56.05 39.4 56.2 39.85L56.5 40.45C55.3 41.05 54.1 41.35 52.75 41.5V39.25C52.75 38.8 52.45 38.5 52 38.5C51.55 38.5 51.25 38.8 51.25 39.25V41.5C50.05 41.35 48.85 41.05 47.65 40.6L47.95 40C48.1 39.7 47.95 39.25 47.65 38.95C47.35 38.8 46.9 38.95 46.6 39.25L46.3 39.85C46.15 39.7 46 39.7 46 39.7C45.7 39.4 45.25 39.55 44.95 39.85C44.65 40.15 44.8 40.6 45.1 40.9C45.4 41.05 45.7 41.2 46 41.5L46.15 41.65H46.3C47.95 42.55 49.9 43 51.85 43C53.95 43 55.9 42.4 57.7 41.5L57.85 41.35C59.65 40.3 61.3 38.65 62.35 36.85C63.55 35.05 64 33.1 64 31Z" fill="white"/>
<path d="M54.7 26.5C54.25 26.5 53.95 26.65 53.8 27.1L52.6 33.1C52.6 33.25 52.6 33.55 52.75 33.7C52.9 33.85 53.35 34 53.5 34H55.75V34.75C55.75 35.2 56.05 35.5 56.5 35.5C56.95 35.5 57.25 35.2 57.25 34.75V34H58C58.45 34 58.75 33.7 58.75 33.25C58.75 32.8 58.45 32.5 58 32.5H57.25V30.25C57.25 29.8 56.95 29.5 56.5 29.5C56.05 29.5 55.75 29.8 55.75 30.25V32.5H54.4L55.3 27.4C55.45 26.95 55.15 26.65 54.7 26.5Z" fill="white"/>
<path d="M51.25 29.5C51.25 27.85 49.9 26.5 48.25 26.5C46.6 26.5 45.25 27.85 45.25 29.5C45.25 29.95 45.55 30.25 46 30.25C46.45 30.25 46.75 29.95 46.75 29.5C46.75 28.6 47.35 28 48.25 28C49.15 28 49.75 28.6 49.75 29.5C49.75 29.95 49.6 30.25 49.3 30.55L45.4 34.3C45.25 34.45 45.1 34.9 45.25 35.05C45.4 35.35 45.7 35.5 46 35.5H50.5C50.95 35.5 51.25 35.2 51.25 34.75C51.25 34.3 50.95 34 50.5 34H47.95L50.5 31.6C50.95 31 51.25 30.25 51.25 29.5Z" fill="white"/>
</g>
<defs>
<clipPath id="clip0_401_178">
<rect width="48" height="48" fill="white" transform="translate(16 16)"/>
</clipPath>
</defs>
</svg>
