<svg width="80" height="80" viewBox="0 0 80 80" fill="none" xmlns="http://www.w3.org/2000/svg">
<rect width="80" height="80" rx="24" fill="#043A3A"/>
<path d="M40.075 42.1C34.525 42.1 30.325 34.975 30.325 28.6V28.525V28.225C30.325 27.85 30.7 27.475 31.075 27.55C31.45 27.55 31.75 27.925 31.75 28.3V28.6C31.75 34.225 35.35 40.75 40 40.75C41.05 40.75 42.025 40.45 43.075 39.775C46.15 37.75 48.325 33.1 48.325 28.675V28.15C48.325 27.775 48.625 27.4 49 27.4C49.375 27.4 49.75 27.7 49.75 28.075V28.15C49.75 28.375 49.75 28.6 49.75 28.6C49.75 33.475 47.275 38.65 43.825 40.9C42.7 41.65 41.35 42.1 40.075 42.1Z" fill="white"/>
<path d="M47.125 29.65C46.3 29.65 45.4 29.425 44.35 28.975C43.975 28.9 41.725 28.3 40 28.225C38.275 28.225 36.025 28.825 35.65 28.975C33.775 29.8 32.2 29.875 31.15 29.2C29.725 28.3 29.65 26.5 29.65 26.2C29.575 25.75 29.2 21.25 31.6 18.475C32.725 17.2 34.225 16.525 36.175 16.45C38.725 16.375 41.275 16.375 43.825 16.45C45.7 16.525 47.275 17.2 48.4 18.475C50.8 21.175 50.425 25.675 50.425 26.2C50.425 26.5 50.35 28.3 48.925 29.2C48.4 29.5 47.8 29.65 47.125 29.65ZM40 17.8C38.725 17.8 37.45 17.8 36.25 17.875C34.75 17.95 33.55 18.4 32.725 19.45C30.7 21.775 31.075 26.05 31.075 26.125V26.2C31.075 26.2 31.075 27.55 31.9 28.075C32.575 28.525 33.625 28.375 35.05 27.7H35.125C35.2 27.7 37.825 26.95 39.925 26.875C41.95 26.875 44.575 27.625 44.725 27.7H44.8C46.225 28.375 47.35 28.45 48.025 28.075C48.85 27.55 48.85 26.2 48.85 26.2V26.125C48.85 26.05 49.225 21.85 47.2 19.45C46.3 18.475 45.175 17.95 43.675 17.875C42.55 17.8 41.275 17.8 40 17.8Z" fill="white"/>
<path d="M49.675 26.875C49.6 26.875 49.45 26.875 49.375 26.8C43.15 24.025 36.85 24.025 30.625 26.8C30.25 26.95 29.875 26.8 29.65 26.425C29.5 26.05 29.65 25.675 30.025 25.45C36.625 22.45 43.3 22.45 49.9 25.45C50.275 25.6 50.425 26.05 50.275 26.425C50.2 26.725 49.9 26.875 49.675 26.875Z" fill="white"/>
<path d="M28.525 54.475C28.15 54.475 27.775 54.175 27.775 53.725V43.525C27.775 43.15 28.075 42.775 28.525 42.775C28.975 42.775 29.275 43.075 29.275 43.525V53.725C29.275 54.1 28.975 54.475 28.525 54.475ZM31.675 54.4C31.3 54.4 30.925 54.1 30.925 53.65V42.85C30.925 42.475 31.225 42.1 31.675 42.1C32.125 42.1 32.425 42.4 32.425 42.85V53.725C32.35 54.1 32.05 54.4 31.675 54.4ZM48.325 54.4C47.95 54.4 47.575 54.1 47.575 53.65V42.85C47.575 42.475 47.875 42.1 48.325 42.1C48.7 42.1 49.075 42.4 49.075 42.85V53.725C49.075 54.1 48.775 54.4 48.325 54.4ZM51.475 54.475C51.1 54.475 50.725 54.175 50.725 53.725V43.525C50.725 43.15 51.025 42.775 51.475 42.775C51.85 42.775 52.225 43.075 52.225 43.525V53.725C52.15 54.1 51.85 54.475 51.475 54.475Z" fill="white"/>
<path d="M26.125 61.9749C25.75 61.9749 25.375 61.6749 25.375 61.2249V56.4249C25.375 54.6999 26.65 53.1999 28.45 53.0499C28.6 53.0499 51.325 53.0499 51.475 53.0499C53.2 53.1999 54.55 54.6999 54.55 56.4249V61.2249C54.55 61.5999 54.25 61.9749 53.8 61.9749C53.425 61.9749 53.05 61.6749 53.05 61.2249V56.4249C53.05 55.4499 52.3 54.5499 51.25 54.4749C50.875 54.4749 28.9 54.4749 28.45 54.4749C27.475 54.5499 26.725 55.4499 26.725 56.4249V61.2249C26.875 61.5999 26.575 61.9749 26.125 61.9749Z" fill="white"/>
<path d="M30.1 59.4249C29.05 59.4249 28.225 58.5999 28.225 57.5499C28.225 56.4999 29.05 55.6749 30.1 55.6749C31.15 55.6749 31.975 56.4999 31.975 57.5499C31.975 58.5999 31.15 59.4249 30.1 59.4249ZM30.1 57.0999C29.875 57.0999 29.65 57.3249 29.65 57.5499C29.65 57.7749 29.875 57.9999 30.1 57.9999C30.325 57.9999 30.55 57.7749 30.55 57.5499C30.55 57.3249 30.325 57.0999 30.1 57.0999ZM49.9 59.4249C48.85 59.4249 48.025 58.5999 48.025 57.5499C48.025 56.4999 48.85 55.6749 49.9 55.6749C50.95 55.6749 51.775 56.4999 51.775 57.5499C51.775 58.5999 50.95 59.4249 49.9 59.4249ZM49.9 57.0999C49.675 57.0999 49.45 57.3249 49.45 57.5499C49.45 57.7749 49.675 57.9999 49.9 57.9999C50.125 57.9999 50.35 57.7749 50.35 57.5499C50.35 57.3249 50.125 57.0999 49.9 57.0999Z" fill="white"/>
<path d="M39.925 63.625C35.275 63.625 30.55 63.025 25.975 61.9C24.4 61.525 22.825 61.075 21.325 60.55C21.1 60.475 20.875 60.25 20.875 60.025C19.825 54.025 19.375 47.425 24.325 44.35C24.925 43.975 25.525 43.675 26.275 43.45C26.95 43.225 27.625 43 28.45 42.775C29.575 42.475 30.55 42.25 31.6 42.1C31.675 42.1 31.825 42.025 31.9 42.025H32.05C33.55 41.65 34.45 40.675 34.9 39.175C34.975 38.8 35.425 38.575 35.8 38.65C36.175 38.725 36.4 39.175 36.325 39.55C35.8 41.575 34.45 42.85 32.425 43.45L32.2 43.525C32.125 43.525 31.975 43.525 31.9 43.6C30.85 43.75 29.875 43.975 28.825 44.275C28.075 44.5 27.4 44.65 26.8 44.875C26.2 45.1 25.6 45.325 25.15 45.625C21.025 48.175 21.325 53.725 22.3 59.425C23.65 59.875 25.075 60.25 26.425 60.625C35.5 62.875 44.65 62.8 53.8 60.625C55.225 60.25 56.575 59.875 57.925 59.5C58.825 54.1 59.2 48.25 55.075 45.7C54.625 45.4 54.025 45.175 53.425 44.95C52.75 44.725 52.075 44.5 51.4 44.35C50.425 44.05 49.375 43.9 48.4 43.675C48.25 43.675 48.175 43.6 48.1 43.6H47.95C45.925 43.075 44.575 41.8 44.05 39.85C43.975 39.475 44.125 39.1 44.575 38.95C44.95 38.875 45.325 39.025 45.475 39.475C45.925 40.975 46.825 41.875 48.325 42.25H48.4C48.55 42.25 48.625 42.25 48.775 42.325C49.825 42.475 50.875 42.7 51.925 43C52.675 43.15 53.35 43.375 54.1 43.675C54.775 43.9 55.45 44.2 55.975 44.575C60.925 47.65 60.475 54.25 59.425 60.25C59.35 60.475 59.2 60.7 58.975 60.775C57.475 61.3 55.9 61.675 54.325 62.125C49.375 63.025 44.65 63.625 39.925 63.625Z" fill="white"/>
<path d="M40 46.75C36.85 46.75 33.925 45.175 32.575 42.7C32.35 42.325 32.5 41.95 32.875 41.725C33.25 41.5 33.625 41.65 33.85 42.025C34.975 44.05 37.375 45.325 40 45.325C42.625 45.325 45.025 44.05 46.15 42.025C46.3 41.65 46.75 41.575 47.125 41.725C47.5 41.875 47.575 42.325 47.425 42.7C46.075 45.175 43.15 46.75 40 46.75Z" fill="white"/>
</svg>
