<svg width="80" height="80" viewBox="0 0 80 80" fill="none" xmlns="http://www.w3.org/2000/svg">
<rect width="80" height="80" rx="24" fill="#043A3A"/>
<path d="M41.2978 29.7277C41.2978 27.538 39.4736 25.7554 37.2304 25.7554C34.9884 25.7554 33.1644 27.538 33.1644 29.7277C33.1642 34.9839 41.2978 34.9812 41.2978 29.7277ZM37.2304 30.9572C36.5005 30.9572 35.9072 30.4055 35.9072 29.7277C35.9072 29.05 36.5005 28.4982 37.2304 28.4982C37.9603 28.4982 38.5549 29.05 38.5549 29.7277C38.5549 30.4055 37.9603 30.9572 37.2304 30.9572Z" fill="white"/>
<path d="M18.0839 60.6639C18.0839 61.4219 18.6973 62.0353 19.4553 62.0353H60.5445C61.3025 62.0353 61.916 61.4219 61.916 60.6639C61.916 59.9059 61.3025 59.2925 60.5445 59.2925H53.3913C53.4112 59.1991 53.4477 59.112 53.4477 59.0125C53.4477 55.9911 51.0811 53.5336 48.1736 53.5336C47.4008 53.5336 46.6562 53.7036 45.9731 54.0304C44.4221 52.8759 42.3101 52.5867 40.5531 53.2671C40.4098 53.0647 40.2494 52.8784 40.0813 52.7003C40.1194 52.5941 40.1643 52.4903 40.1754 52.3739C40.1781 52.3632 40.1794 52.3511 40.1807 52.339C40.3147 51.6024 40.4351 50.8658 40.5303 50.1413C40.5503 50.0663 40.5651 49.9913 40.5732 49.915C40.58 49.8788 40.596 49.8026 40.6 49.7852C40.6081 49.741 40.6134 49.686 40.6174 49.6311C40.6258 49.5729 40.6315 49.514 40.6396 49.4555C41.5538 49.748 42.488 49.8909 43.4125 49.8909C46.9482 49.8895 50.3286 47.8418 51.8339 44.4186C51.9812 44.0851 51.9893 43.7074 51.8567 43.3687C51.724 43.0299 51.4629 42.7566 51.1294 42.6107C47.6343 41.0806 43.771 41.8554 41.1798 44.3049C41.2766 42.8833 41.3275 41.4576 41.3378 40.0309C41.5246 39.7831 41.6632 39.528 41.7583 39.2825C44.9693 40.8319 49.7798 36.85 48.4159 33.8182C51.8192 32.7191 51.8183 26.8586 48.4131 25.7638C49.7796 22.7555 45.0064 18.7241 41.7583 20.2941C40.5512 17.1895 33.9077 17.1885 32.6967 20.2927C29.4596 18.7298 24.6821 22.7581 26.0473 25.7635C22.6424 26.8583 22.6402 32.7218 26.046 33.8179C24.6353 36.9538 29.5737 40.7883 32.6968 39.2836C33.1066 40.3389 34.2276 41.5805 37.2304 41.5805C37.7336 41.5805 38.1662 41.5351 38.5693 41.472C38.4937 44.0839 38.272 46.7082 37.8933 49.3015C37.8906 49.3175 37.888 49.3363 37.8866 49.3577C37.8759 49.406 37.8638 49.4662 37.8545 49.5358C37.8385 49.5934 37.8278 49.651 37.8197 49.71C37.7558 50.2126 37.665 50.7256 37.5783 51.2368C37.1998 51.1453 36.8078 51.0949 36.4068 51.0949C34.0162 51.0949 32.0006 52.7945 31.4247 55.09C29.3301 55.2855 27.6359 57.0454 27.4912 59.2551C27.4904 59.2682 27.4967 59.2796 27.4963 59.2926H19.4556C18.6973 59.2925 18.0839 59.9059 18.0839 60.6639ZM48.5178 44.6648C47.0741 46.5184 44.6981 47.4451 42.3745 47.0621C43.825 45.1737 46.1875 44.2643 48.5178 44.6648ZM34.8544 34.6497C33.0773 33.7673 32.5047 36.9184 31.0574 36.9184C30.0403 36.9184 28.5315 35.4692 28.5315 34.9992C28.5315 34.644 30.335 33.6895 30.6516 33.5261C32.0612 32.798 31.2992 30.6373 29.7396 30.9653C27.1432 31.5112 26.2588 31.5766 26.2588 29.7881C26.2588 28.0373 27.0529 28.063 29.7343 28.6122C30.3933 28.7462 31.0723 28.3739 31.3013 27.7296C31.5317 27.0866 31.253 26.3716 30.6477 26.0541C30.3436 25.8949 28.5315 24.924 28.5315 24.5795C28.5315 24.0814 30.5851 21.9332 31.8061 22.9617C32.9176 23.9032 33.4247 25.6377 34.8544 24.9277C36.3025 24.2117 35.2107 22.8194 35.2107 21.5112C35.2107 20.4717 39.2432 20.4676 39.2432 21.5112C39.2432 22.7937 38.1717 24.226 39.6102 24.9291C41.4045 25.8141 41.951 22.6576 43.4004 22.6576C44.4173 22.6576 45.9291 24.1061 45.9291 24.5795C45.9291 24.928 44.1196 25.8916 43.8104 26.0527C42.4096 26.7841 43.1678 28.9252 44.7211 28.6121C47.3057 28.082 48.2019 27.9984 48.2019 29.788C48.2019 33.2858 44.055 29.3484 43.1541 31.8437C42.4502 33.8049 45.9291 34.1133 45.9291 34.9991C45.9291 35.4728 44.4205 36.9183 43.4004 36.9183C42.6394 36.9183 41.8099 35.738 41.3299 35.0781C40.4355 33.8456 38.4884 34.7889 38.9004 36.2553C39.1535 37.154 39.2432 37.7928 39.2432 38.066C39.2432 38.7624 37.8356 38.8375 37.2302 38.8375C32.8337 38.8376 37.2607 35.8365 34.8544 34.6497ZM31.8143 57.8139C31.9576 57.8139 32.0875 57.8327 32.1934 57.8688C32.642 58.0228 33.1456 57.9572 33.5126 57.6544C33.8796 57.3516 34.067 56.9058 34.0013 56.4344C34.0013 55.0028 35.0808 53.8375 36.4067 53.8375C37.4285 53.8375 38.3393 54.5339 38.6727 55.5718C38.8093 55.9964 39.1442 56.3272 39.57 56.461C39.9986 56.595 40.4606 56.5105 40.813 56.2387C42.0143 55.3172 43.7607 55.5007 44.8 56.6538C45.2834 57.1936 46.1071 57.2592 46.675 56.8078C47.1103 56.4596 47.6285 56.2761 48.1737 56.2761C49.5693 56.2761 50.7049 57.5029 50.7049 59.0123C50.7049 59.1117 50.7414 59.1988 50.7616 59.2922H30.2634C30.3846 58.4562 31.0301 57.8139 31.8143 57.8139Z" fill="white"/>
</svg>
