<svg width="80" height="80" viewBox="0 0 80 80" fill="none" xmlns="http://www.w3.org/2000/svg">
<rect width="80" height="80" rx="24" fill="#043A3A"/>
<g clip-path="url(#clip0_401_146)">
<path fill-rule="evenodd" clip-rule="evenodd" d="M25.5167 29.9636H25.3177C24.5414 29.9636 23.8266 30.2547 23.2842 30.7391C22.7418 31.223 22.3713 31.8998 22.2832 32.6713L22.0995 34.2775C22.072 34.5171 22.2444 34.7335 22.4835 34.761C22.7226 34.7881 22.9391 34.6161 22.9665 34.377L23.1503 32.7703C23.2131 32.2196 23.4775 31.7361 23.8655 31.3901C24.2529 31.0445 24.7631 30.8364 25.3177 30.8364H26.0691L36.6073 47.4815C36.7177 47.656 36.8023 47.8445 36.8591 48.0409C36.9101 48.2172 36.9389 48.3996 36.9446 48.5846C36.9232 48.592 36.9018 48.5999 36.8809 48.6086C36.7233 48.674 36.5789 48.7696 36.4563 48.8927C36.3332 49.0153 36.2377 49.1597 36.1722 49.3172C36.1072 49.4748 36.0727 49.6445 36.0727 49.8182V50.0364C34.1462 50.0364 32.4007 50.8183 31.1366 52.082C29.8729 53.3462 29.0909 55.0916 29.0909 57.0182C29.0909 57.8163 29.2249 58.583 29.4723 59.2977C29.3553 59.2039 29.2419 59.1057 29.1324 59.0032C28.6833 58.5808 28.3002 58.0829 28.0044 57.5235L23.519 49.0519C22.9216 47.9235 22.5023 46.7183 22.2679 45.4781C22.034 44.2375 21.9852 42.9625 22.1305 41.694L22.7671 36.1225C22.7942 35.8829 22.6223 35.6665 22.3831 35.639C22.1436 35.6119 21.9271 35.7839 21.9001 36.023L21.263 41.5949C21.1081 42.9507 21.16 44.3139 21.4105 45.64C21.6605 46.9657 22.1091 48.2543 22.7479 49.4604L27.2329 57.9319C27.5745 58.5773 28.0161 59.1516 28.535 59.639C29.0237 60.0985 29.5801 60.4799 30.1853 60.7705C30.4589 61.199 30.7788 61.5961 31.1366 61.9543C32.4007 63.218 34.1462 64 36.0727 64C37.9993 64 39.7447 63.218 41.0089 61.9543C41.0534 61.9094 41.0975 61.864 41.1411 61.8182H50.9091C51.15 61.8182 51.3455 61.6227 51.3455 61.3818C51.3455 61.1409 51.15 60.9455 50.9091 60.9455H41.8445C42.6081 59.8262 43.0545 58.4739 43.0545 57.0182L43.0393 56.553C43.0236 56.3126 42.8154 56.1306 42.575 56.1463C42.335 56.162 42.1526 56.3702 42.1683 56.6106L42.1818 57.0182C42.1818 58.7039 41.4976 60.2311 40.3914 61.3369C39.2857 62.4431 37.7584 63.1273 36.0727 63.1273C34.3871 63.1273 32.8598 62.4431 31.754 61.3369C30.6479 60.2311 29.9636 58.7039 29.9636 57.0182C29.9636 55.3325 30.6479 53.8052 31.754 52.6995C32.8598 51.5933 34.3871 50.9091 36.0727 50.9091C37.3857 50.9091 38.6028 51.3241 39.599 52.0301C40.6196 52.7536 41.409 53.7817 41.8336 54.9821C41.9143 55.209 42.1635 55.3281 42.3908 55.2479C42.6177 55.1676 42.7369 54.918 42.6566 54.6906C42.273 53.6067 41.6289 52.6454 40.7999 51.8817C41.8406 52.5324 42.9773 53.1773 44.1175 53.7079C45.2111 54.2167 46.3089 54.6199 47.3313 54.8276C48.232 55.0105 49.3556 55.2208 50.5823 55.4407C51.8634 55.6707 53.2576 55.9111 54.6278 56.1428C53.9405 56.9732 53.5273 58.0388 53.5273 59.2C53.5273 59.8157 53.6433 60.4044 53.855 60.9455H52.6545C52.4137 60.9455 52.2182 61.1409 52.2182 61.3818C52.2182 61.6227 52.4137 61.8182 52.6545 61.8182H54.3044C54.4873 62.0983 54.6985 62.358 54.9337 62.5936C55.8025 63.4624 57.0025 64 58.3273 64C59.6521 64 60.8521 63.4624 61.7209 62.5936C61.9561 62.358 62.1673 62.0983 62.3501 61.8182H62.6909C62.8977 61.8182 63.0985 61.7693 63.2787 61.679C63.4585 61.5887 63.6177 61.4564 63.7412 61.2906C63.8647 61.1244 63.9455 60.9341 63.9804 60.736C64.0153 60.5375 64.0044 60.3311 63.9446 60.1329L63.5811 58.4673C63.4873 58.1549 63.3463 57.8652 63.1665 57.6055C63.0012 57.3673 62.8035 57.1543 62.5796 56.9728C62.3601 56.5552 62.0813 56.1738 61.754 55.84C61.5852 55.6681 61.3089 55.6655 61.1366 55.8339C60.9647 56.0023 60.962 56.279 61.1309 56.4509C61.4844 56.8118 61.7693 57.2403 61.9639 57.7151C62.1511 58.1732 62.2545 58.6746 62.2545 59.2C62.2545 60.2839 61.8147 61.2653 61.1039 61.9766C60.3926 62.6874 59.4112 63.1273 58.3273 63.1273C57.2433 63.1273 56.262 62.6874 55.5507 61.9766C54.8399 61.2653 54.4 60.2839 54.4 59.2C54.4 58.1161 54.8399 57.1347 55.5507 56.4234C56.262 55.7126 57.2433 55.2727 58.3273 55.2727C58.6292 55.2727 58.9238 55.3068 59.2061 55.3718C59.4976 55.4381 59.7769 55.5376 60.0396 55.665C60.2564 55.7706 60.5174 55.6799 60.623 55.4634C60.7281 55.247 60.6378 54.9856 60.4209 54.8804C60.0993 54.7238 59.7577 54.6025 59.4012 54.5209C59.0556 54.4419 58.6964 54.4 58.3273 54.4C57.2303 54.4 56.2183 54.7687 55.4097 55.3892L55.2727 55.3661V52.6323C55.3412 52.6188 55.408 52.5983 55.4721 52.5716C55.6031 52.5171 55.7235 52.4372 55.826 52.3351C55.9281 52.2326 56.008 52.1121 56.0625 51.9812C56.1166 51.8499 56.1455 51.7085 56.1455 51.5636C56.1455 51.4188 56.1166 51.2774 56.0625 51.146C56.0276 51.0623 55.9823 50.9824 55.9273 50.9091C55.9823 50.8358 56.0276 50.7559 56.0625 50.6721C56.1166 50.5408 56.1455 50.3994 56.1455 50.2545C56.1455 50.1808 56.138 50.1075 56.1232 50.0364H56.1455C56.3191 50.0364 56.4889 50.0019 56.6464 49.9369C56.8039 49.8714 56.9484 49.7759 57.071 49.6528C57.194 49.5302 57.2896 49.3857 57.3551 49.2282C57.4201 49.0711 57.4545 48.9009 57.4545 48.7273V48.4847C57.4545 47.7066 57.1617 46.9901 56.6756 46.4473C56.1895 45.9044 55.5101 45.5344 54.7364 45.4489C54.7351 45.4489 54.7343 45.4484 54.7329 45.4484C53.7996 45.3529 52.7047 45.2324 51.6854 45.102C50.9449 45.0073 50.2445 44.9069 49.6759 44.8065C49.048 44.6957 48.2577 44.4985 47.4308 44.2676C46.271 43.9439 45.04 43.5533 44.0783 43.2365C44.0765 43.2361 44.0752 43.2356 44.0739 43.2352C43.8047 43.1497 43.5228 43.1318 43.2518 43.1785C42.9812 43.2247 42.7212 43.3347 42.4956 43.5049C42.27 43.6751 42.0924 43.8945 41.9737 44.1424C41.8545 44.3903 41.7943 44.666 41.8026 44.9484L41.913 48.7657C41.9235 49.1196 42.0736 49.4372 42.3097 49.6663C42.5135 49.8644 42.7809 49.9962 43.0781 50.0285C43.0624 50.1023 43.0545 50.1782 43.0545 50.2545C43.0545 50.3994 43.0833 50.5408 43.1375 50.6721C43.1724 50.7559 43.2177 50.8358 43.2727 50.9091C43.2177 50.9824 43.1724 51.0623 43.1375 51.146C43.0833 51.2774 43.0545 51.4218 43.0545 51.5636C43.0545 51.8647 43.1767 52.1375 43.374 52.3351C43.3975 52.3583 43.422 52.3809 43.4473 52.4019C42.3878 51.8464 41.3571 51.2176 40.4364 50.6119V49.8182C40.4364 49.6445 40.4019 49.4748 40.3369 49.3172C40.2714 49.1597 40.1759 49.0153 40.0528 48.8927C39.9302 48.7696 39.7857 48.674 39.6282 48.6086C39.6068 48.5999 39.585 48.5916 39.5632 48.5837C39.5575 48.1513 39.4929 47.7236 39.3738 47.3117C39.2486 46.8797 39.0623 46.4652 38.8192 46.0812C38.8192 46.0812 38.1332 44.9977 37.0319 43.2575C36.9027 43.0541 36.633 42.9935 36.4297 43.1222C36.2259 43.2509 36.1657 43.521 36.2944 43.7244C37.3962 45.4646 38.0817 46.5476 38.0817 46.5476C38.2807 46.8618 38.433 47.2013 38.5356 47.5548C38.6185 47.8401 38.6687 48.2006 38.6848 48.5091H37.8103C37.7955 48.28 37.7575 48.0047 37.6973 47.7978C37.6175 47.5229 37.4992 47.2589 37.3443 47.0145L19.6196 19.017C19.3687 18.6212 19.0257 18.3031 18.6278 18.0845C18.2303 17.8655 17.7629 17.7455 17.3091 17.7455C17.0682 17.7455 16.8727 17.55 16.8727 17.3091C16.8727 17.0682 17.0682 16.8727 17.3091 16.8727C17.9274 16.8727 18.5239 17.0311 19.0484 17.32C19.5734 17.6089 20.0263 18.0282 20.3567 18.5501C20.3567 18.5501 30.1652 34.0428 35.1891 41.9789C35.3183 42.1823 35.5879 42.2429 35.7913 42.1142C35.9951 41.9855 36.0553 41.7153 35.9265 41.512C30.9027 33.5763 21.0941 18.0836 21.0941 18.0836C20.6835 17.4348 20.121 16.9142 19.4695 16.5555C18.818 16.1964 18.0771 16 17.3091 16C16.5869 16 16 16.5865 16 17.3091C16 18.0317 16.5865 18.6182 17.3091 18.6182C17.618 18.6182 17.9361 18.6998 18.2071 18.849C18.4777 18.9978 18.7116 19.2143 18.8822 19.4839L25.5167 29.9636ZM58.3273 57.1273C57.7552 57.1273 57.2372 57.3594 56.862 57.7347C56.4867 58.11 56.2545 58.6279 56.2545 59.2C56.2545 59.7721 56.4867 60.29 56.862 60.6653C57.2372 61.0406 57.7552 61.2727 58.3273 61.2727C58.8993 61.2727 59.4173 61.0406 59.7926 60.6653C60.1679 60.29 60.4 59.7721 60.4 59.2C60.4 58.6279 60.1679 58.11 59.7926 57.7347C59.4173 57.3594 58.8993 57.1273 58.3273 57.1273ZM63.0841 59.8471C63.0326 60.2289 62.9357 60.5972 62.7996 60.9455H62.827C62.896 60.9455 63.0439 60.825 63.0854 60.7696C63.1264 60.7142 63.1535 60.6509 63.1648 60.5846C63.2071 60.345 63.0841 59.8471 63.0841 59.8471ZM58.3273 58C58.6585 58 58.9583 58.1344 59.1756 58.3517C59.3929 58.569 59.5273 58.8688 59.5273 59.2C59.5273 59.5312 59.3929 59.831 59.1756 60.0483C58.9583 60.2656 58.6585 60.4 58.3273 60.4C57.9961 60.4 57.6963 60.2656 57.479 60.0483C57.2617 59.831 57.1273 59.5312 57.1273 59.2C57.1273 58.8688 57.2617 58.569 57.479 58.3517C57.6963 58.1344 57.9961 58 58.3273 58ZM36.0727 54.1273C35.2751 54.1273 34.552 54.4511 34.0288 54.9743C33.5056 55.4975 33.1818 56.2205 33.1818 57.0182C33.1818 57.8159 33.5056 58.5389 34.0288 59.0621C34.552 59.5853 35.2751 59.9091 36.0727 59.9091C36.8704 59.9091 37.5935 59.5853 38.1167 59.0621C38.6399 58.5389 38.9636 57.8159 38.9636 57.0182C38.9636 56.2205 38.6399 55.4975 38.1167 54.9743C37.5935 54.4511 36.8704 54.1273 36.0727 54.1273ZM36.0727 55C36.6295 55 37.134 55.226 37.4996 55.5913C37.8649 55.9569 38.0909 56.4614 38.0909 57.0182C38.0909 57.575 37.8649 58.0794 37.4996 58.4451C37.134 58.8103 36.6295 59.0364 36.0727 59.0364C35.5159 59.0364 35.0115 58.8103 34.6458 58.4451C34.2806 58.0794 34.0545 57.575 34.0545 57.0182C34.0545 56.4614 34.2806 55.9569 34.6458 55.5913C35.0115 55.226 35.5159 55 36.0727 55ZM54.4 55.2191V52.6545H53.9636C53.7228 52.6545 53.5273 52.4591 53.5273 52.2182C53.5273 51.9773 53.7228 51.7818 53.9636 51.7818H55.0545C55.0833 51.7818 55.1117 51.7761 55.1379 51.7652C55.1641 51.7543 55.1885 51.7382 55.209 51.7181C55.2291 51.6976 55.2452 51.6732 55.2561 51.647C55.2671 51.6208 55.2727 51.5924 55.2727 51.5636C55.2727 51.5348 55.2671 51.5065 55.2561 51.4803C55.2452 51.4541 55.2291 51.4297 55.209 51.4092C55.1885 51.3891 55.1641 51.3729 55.1379 51.362C55.1117 51.3511 55.0833 51.3455 55.0545 51.3455H47.4182C47.1773 51.3455 46.9818 51.15 46.9818 50.9091C46.9818 50.6682 47.1773 50.4727 47.4182 50.4727H55.0545C55.0833 50.4727 55.1117 50.4671 55.1379 50.4561C55.1641 50.4452 55.1885 50.4291 55.209 50.409C55.2291 50.3885 55.2452 50.3641 55.2561 50.3379C55.2671 50.3117 55.2727 50.2833 55.2727 50.2545C55.2727 50.2257 55.2671 50.1974 55.2561 50.1712C55.2452 50.145 55.2291 50.1206 55.209 50.1001C55.1885 50.08 55.1641 50.0639 55.1379 50.0529C55.1117 50.042 55.0833 50.0364 55.0545 50.0364H52.2182C51.9773 50.0364 51.7818 49.8409 51.7818 49.6C51.7818 49.3591 51.9773 49.1636 52.2182 49.1636H56.1455C56.2035 49.1636 56.2598 49.1523 56.3126 49.1305C56.3649 49.1087 56.4129 49.0768 56.454 49.0358C56.495 48.9948 56.5268 48.9468 56.5487 48.8944C56.5705 48.842 56.5818 48.7853 56.5818 48.7273V48.4847C56.5818 47.9287 56.3728 47.4173 56.0255 47.0294C55.6785 46.6419 55.1937 46.3779 54.6417 46.3164C53.7023 46.2199 52.6004 46.0991 51.5745 45.9677C50.8192 45.8708 50.1044 45.7683 49.5241 45.6662C48.873 45.551 48.0535 45.3476 47.1961 45.1081C46.0244 44.7808 44.7808 44.3868 43.8081 44.0665C43.6742 44.0241 43.5337 44.0154 43.3988 44.0385C43.2636 44.0617 43.1335 44.1167 43.0209 44.2017C42.9084 44.2868 42.8198 44.3964 42.7604 44.5203C42.7007 44.6438 42.6705 44.7817 42.6749 44.9226L42.7853 48.7399C42.7888 48.8582 42.839 48.9638 42.9175 49.0401C42.9961 49.1165 43.1034 49.1636 43.2217 49.1636H50.4727C50.7136 49.1636 50.9091 49.3591 50.9091 49.6C50.9091 49.8409 50.7136 50.0364 50.4727 50.0364H44.1455C44.1167 50.0364 44.0883 50.042 44.0621 50.0529C44.0359 50.0639 44.0115 50.08 43.991 50.1001C43.9709 50.1206 43.9548 50.145 43.9439 50.1712C43.9329 50.1974 43.9273 50.2257 43.9273 50.2545C43.9273 50.2833 43.9329 50.3117 43.9439 50.3379C43.9548 50.3641 43.9709 50.3885 43.991 50.409C44.0115 50.4291 44.0359 50.4452 44.0621 50.4561C44.0883 50.4671 44.1167 50.4727 44.1455 50.4727H45.6727C45.9136 50.4727 46.1091 50.6682 46.1091 50.9091C46.1091 51.15 45.9136 51.3455 45.6727 51.3455H44.1455C44.1167 51.3455 44.0883 51.3511 44.0621 51.362C44.0359 51.3729 44.0115 51.3891 43.991 51.4092C43.9709 51.4297 43.9548 51.4541 43.9439 51.4803C43.9329 51.5065 43.9273 51.5353 43.9273 51.5636C43.9273 51.6239 43.9517 51.6784 43.991 51.7181C44.0307 51.7574 44.0852 51.7818 44.1455 51.7818H52.2182C52.459 51.7818 52.6545 51.9773 52.6545 52.2182C52.6545 52.4591 52.459 52.6545 52.2182 52.6545H44.8V53.0595C45.7229 53.471 46.6423 53.7969 47.505 53.9724C48.4004 54.1543 49.5171 54.3629 50.7363 54.5815C51.8983 54.7901 53.1537 55.0074 54.4 55.2191ZM43.8727 52.6201L43.9273 52.6476V52.6327L43.8727 52.6201ZM39.5636 50.9715V49.8182C39.5636 49.7601 39.5523 49.7039 39.5305 49.6511C39.5087 49.5987 39.4768 49.5507 39.4358 49.5097C39.3948 49.4687 39.3468 49.4368 39.2944 49.415C39.242 49.3932 39.1853 49.3818 39.1273 49.3818H37.3818C37.3238 49.3818 37.2671 49.3932 37.2147 49.415C37.1623 49.4368 37.1143 49.4687 37.0733 49.5097C37.0323 49.5507 37.0004 49.5987 36.9786 49.6511C36.9568 49.7039 36.9455 49.7601 36.9455 49.8182V50.0905C37.8893 50.2083 38.7751 50.5151 39.5636 50.9715Z" fill="white"/>
</g>
<defs>
<clipPath id="clip0_401_146">
<rect width="48" height="48" fill="white" transform="translate(16 16)"/>
</clipPath>
</defs>
</svg>
