<svg width="17" height="16" viewBox="0 0 17 16" fill="none" xmlns="http://www.w3.org/2000/svg">
<g id="Group 61">
<path id="Vector" d="M14 2.6665H3.33335C2.60002 2.6665 2.00668 3.2665 2.00668 3.99984L2.00002 11.9998C2.00002 12.7332 2.60002 13.3332 3.33335 13.3332H14C14.7333 13.3332 15.3333 12.7332 15.3333 11.9998V3.99984C15.3333 3.2665 14.7333 2.6665 14 2.6665ZM13.7333 5.49984L9.02001 8.4465C8.80668 8.57984 8.52668 8.57984 8.31335 8.4465L3.60002 5.49984C3.43335 5.39317 3.33335 5.21317 3.33335 5.01984C3.33335 4.57317 3.82002 4.3065 4.20002 4.53984L8.66668 7.33317L13.1333 4.53984C13.5133 4.3065 14 4.57317 14 5.01984C14 5.21317 13.9 5.39317 13.7333 5.49984Z" fill="white"/>
</g>
</svg>
