<svg width="174" height="27" viewBox="0 0 174 27" fill="none" xmlns="http://www.w3.org/2000/svg">
<path d="M0.0900001 26V0.919999H4.916V26H0.0900001ZM3.282 26V21.934H17.912V26H3.282ZM3.282 15.17V11.484H16.126V15.17H3.282ZM3.282 4.986V0.919999H17.874V4.986H3.282ZM25.3642 26L18.7142 6.164H23.9202L28.4422 21.972H28.7082L33.3062 6.164H38.2842L31.5962 26H25.3642ZM48.6157 26.532C46.9184 26.532 45.449 26.2787 44.2077 25.772C42.9917 25.2653 41.9784 24.5687 41.1677 23.682C40.357 22.77 39.749 21.6933 39.3437 20.452C38.9637 19.2107 38.7737 17.868 38.7737 16.424C38.7737 14.9293 38.9637 13.536 39.3437 12.244C39.749 10.9267 40.3317 9.774 41.0917 8.786C41.877 7.798 42.865 7.02533 44.0557 6.468C45.2464 5.91067 46.6397 5.632 48.2357 5.632C49.781 5.632 51.1237 5.898 52.2637 6.43C53.4037 6.93667 54.341 7.684 55.0757 8.672C55.8104 9.63467 56.3297 10.7873 56.6337 12.13C56.9377 13.4727 57.001 14.9673 56.8237 16.614L41.7757 16.842V13.992L53.4037 13.84L52.4157 15.436C52.517 14.1693 52.4157 13.1053 52.1117 12.244C51.833 11.3573 51.3644 10.686 50.7057 10.23C50.0724 9.74867 49.2617 9.508 48.2737 9.508C47.1844 9.508 46.2724 9.78667 45.5377 10.344C44.8284 10.9013 44.2964 11.6867 43.9417 12.7C43.587 13.688 43.4097 14.866 43.4097 16.234C43.4097 18.438 43.853 20.0973 44.7397 21.212C45.6517 22.3013 46.9564 22.846 48.6537 22.846C49.439 22.846 50.0977 22.732 50.6297 22.504C51.1617 22.276 51.5924 21.9847 51.9217 21.63C52.251 21.25 52.479 20.832 52.6057 20.376C52.7577 19.8947 52.8464 19.4007 52.8717 18.894L57.2417 19.35C57.2164 20.2873 57.0264 21.1867 56.6717 22.048C56.3424 22.9093 55.823 23.682 55.1137 24.366C54.4297 25.0247 53.543 25.5567 52.4537 25.962C51.3897 26.342 50.1104 26.532 48.6157 26.532ZM60.0905 26V15.93V6.164H64.3085L64.0425 14.258H64.4985C64.6758 12.206 64.9925 10.5593 65.4485 9.318C65.9298 8.05133 66.5505 7.13933 67.3105 6.582C68.0958 5.99933 68.9825 5.708 69.9705 5.708C70.3505 5.708 70.7432 5.75867 71.1485 5.86C71.5538 5.936 71.9592 6.06267 72.3645 6.24L72.1365 11.446C71.6805 11.218 71.2245 11.0533 70.7685 10.952C70.3125 10.8507 69.8818 10.8 69.4765 10.8C68.5392 10.8 67.7412 11.0913 67.0825 11.674C66.4238 12.2567 65.9045 13.1053 65.5245 14.22C65.1698 15.3093 64.9545 16.6393 64.8785 18.21V26H60.0905Z" fill="white"/>
<path d="M84.8567 26.532C82.7794 26.532 80.9427 26.0253 79.3467 25.012C77.7761 23.9987 76.5474 22.5293 75.6607 20.604C74.7741 18.6787 74.3307 16.3607 74.3307 13.65C74.3307 11.674 74.5714 9.888 75.0527 8.292C75.5594 6.67067 76.3067 5.27733 77.2947 4.112C78.2827 2.92133 79.5114 2.00933 80.9807 1.376C82.4501 0.717333 84.1727 0.387999 86.1487 0.387999C87.6687 0.387999 89.0241 0.590665 90.2147 0.995998C91.4307 1.40133 92.4567 1.984 93.2927 2.744C94.1287 3.504 94.7621 4.416 95.1927 5.48C95.6234 6.51867 95.8387 7.69667 95.8387 9.014L91.2787 9.812C91.2534 8.824 91.0887 7.988 90.7847 7.304C90.4807 6.62 90.0754 6.07533 89.5687 5.67C89.0874 5.23933 88.5301 4.93533 87.8967 4.758C87.2887 4.55533 86.6427 4.454 85.9587 4.454C85.0214 4.454 84.1474 4.63133 83.3367 4.986C82.5514 5.34067 81.8547 5.88533 81.2467 6.62C80.6641 7.35467 80.1954 8.292 79.8407 9.432C79.5114 10.5467 79.3467 11.8893 79.3467 13.46C79.3467 15.0307 79.5241 16.3987 79.8787 17.564C80.2334 18.704 80.7147 19.6413 81.3227 20.376C81.9561 21.1107 82.6907 21.6553 83.5267 22.01C84.3881 22.3393 85.3127 22.504 86.3007 22.504C87.4914 22.504 88.4921 22.2887 89.3027 21.858C90.1387 21.4273 90.7847 20.8067 91.2407 19.996C91.6967 19.16 91.9627 18.1467 92.0387 16.956H87.4407V13.384H96.4847V17.716L96.5227 26H92.9887L93.2167 19.16H92.7987C92.5707 20.756 92.1147 22.0987 91.4307 23.188C90.7721 24.2773 89.8981 25.1133 88.8087 25.696C87.7194 26.2533 86.4021 26.532 84.8567 26.532ZM99.9831 26V15.93V6.164H104.201L103.935 14.258H104.391C104.568 12.206 104.885 10.5593 105.341 9.318C105.822 8.05133 106.443 7.13933 107.203 6.582C107.988 5.99933 108.875 5.708 109.863 5.708C110.243 5.708 110.636 5.75867 111.041 5.86C111.446 5.936 111.852 6.06267 112.257 6.24L112.029 11.446C111.573 11.218 111.117 11.0533 110.661 10.952C110.205 10.8507 109.774 10.8 109.369 10.8C108.432 10.8 107.634 11.0913 106.975 11.674C106.316 12.2567 105.797 13.1053 105.417 14.22C105.062 15.3093 104.847 16.6393 104.771 18.21V26H99.9831ZM123.168 26.532C121.471 26.532 120.002 26.2787 118.76 25.772C117.544 25.2653 116.531 24.5687 115.72 23.682C114.91 22.77 114.302 21.6933 113.896 20.452C113.516 19.2107 113.326 17.868 113.326 16.424C113.326 14.9293 113.516 13.536 113.896 12.244C114.302 10.9267 114.884 9.774 115.644 8.786C116.43 7.798 117.418 7.02533 118.608 6.468C119.799 5.91067 121.192 5.632 122.788 5.632C124.334 5.632 125.676 5.898 126.816 6.43C127.956 6.93667 128.894 7.684 129.628 8.672C130.363 9.63467 130.882 10.7873 131.186 12.13C131.49 13.4727 131.554 14.9673 131.376 16.614L116.328 16.842V13.992L127.956 13.84L126.968 15.436C127.07 14.1693 126.968 13.1053 126.664 12.244C126.386 11.3573 125.917 10.686 125.258 10.23C124.625 9.74867 123.814 9.508 122.826 9.508C121.737 9.508 120.825 9.78667 120.09 10.344C119.381 10.9013 118.849 11.6867 118.494 12.7C118.14 13.688 117.962 14.866 117.962 16.234C117.962 18.438 118.406 20.0973 119.292 21.212C120.204 22.3013 121.509 22.846 123.206 22.846C123.992 22.846 124.65 22.732 125.182 22.504C125.714 22.276 126.145 21.9847 126.474 21.63C126.804 21.25 127.032 20.832 127.158 20.376C127.31 19.8947 127.399 19.4007 127.424 18.894L131.794 19.35C131.769 20.2873 131.579 21.1867 131.224 22.048C130.895 22.9093 130.376 23.682 129.666 24.366C128.982 25.0247 128.096 25.5567 127.006 25.962C125.942 26.342 124.663 26.532 123.168 26.532ZM143.801 26.532C142.104 26.532 140.635 26.2787 139.393 25.772C138.177 25.2653 137.164 24.5687 136.353 23.682C135.543 22.77 134.935 21.6933 134.529 20.452C134.149 19.2107 133.959 17.868 133.959 16.424C133.959 14.9293 134.149 13.536 134.529 12.244C134.935 10.9267 135.517 9.774 136.277 8.786C137.063 7.798 138.051 7.02533 139.241 6.468C140.432 5.91067 141.825 5.632 143.421 5.632C144.967 5.632 146.309 5.898 147.449 6.43C148.589 6.93667 149.527 7.684 150.261 8.672C150.996 9.63467 151.515 10.7873 151.819 12.13C152.123 13.4727 152.187 14.9673 152.009 16.614L136.961 16.842V13.992L148.589 13.84L147.601 15.436C147.703 14.1693 147.601 13.1053 147.297 12.244C147.019 11.3573 146.55 10.686 145.891 10.23C145.258 9.74867 144.447 9.508 143.459 9.508C142.37 9.508 141.458 9.78667 140.723 10.344C140.014 10.9013 139.482 11.6867 139.127 12.7C138.773 13.688 138.595 14.866 138.595 16.234C138.595 18.438 139.039 20.0973 139.925 21.212C140.837 22.3013 142.142 22.846 143.839 22.846C144.625 22.846 145.283 22.732 145.815 22.504C146.347 22.276 146.778 21.9847 147.107 21.63C147.437 21.25 147.665 20.832 147.791 20.376C147.943 19.8947 148.032 19.4007 148.057 18.894L152.427 19.35C152.402 20.2873 152.212 21.1867 151.857 22.048C151.528 22.9093 151.009 23.682 150.299 24.366C149.615 25.0247 148.729 25.5567 147.639 25.962C146.575 26.342 145.296 26.532 143.801 26.532ZM155.276 26V15.17V6.164H159.418L159.19 14.182H159.608C159.836 12.1047 160.241 10.4453 160.824 9.204C161.432 7.96267 162.217 7.06333 163.18 6.506C164.143 5.92333 165.27 5.632 166.562 5.632C167.55 5.632 168.411 5.79667 169.146 6.126C169.906 6.45533 170.539 6.924 171.046 7.532C171.578 8.11467 171.996 8.81133 172.3 9.622C172.629 10.4073 172.857 11.2687 172.984 12.206C173.136 13.1433 173.212 14.1187 173.212 15.132V26H168.386V15.702C168.386 15.1193 168.361 14.4987 168.31 13.84C168.259 13.156 168.12 12.51 167.892 11.902C167.664 11.294 167.322 10.8 166.866 10.42C166.41 10.0147 165.764 9.812 164.928 9.812C163.915 9.812 163.041 10.154 162.306 10.838C161.597 11.522 161.052 12.548 160.672 13.916C160.292 15.2587 160.102 16.9433 160.102 18.97V26H155.276Z" fill="#2FB95D"/>
</svg>
