<svg width="17" height="16" viewBox="0 0 17 16" fill="none" xmlns="http://www.w3.org/2000/svg">
<g id="Group 62">
<path id="Vector" d="M8.66668 1.3335C6.08668 1.3335 4.00002 3.42016 4.00002 6.00016C4.00002 8.78016 6.94668 12.6135 8.16001 14.0735C8.42668 14.3935 8.91335 14.3935 9.18002 14.0735C10.3867 12.6135 13.3333 8.78016 13.3333 6.00016C13.3333 3.42016 11.2467 1.3335 8.66668 1.3335ZM8.66668 7.66683C7.74668 7.66683 7.00002 6.92016 7.00002 6.00016C7.00002 5.08016 7.74668 4.3335 8.66668 4.3335C9.58668 4.3335 10.3333 5.08016 10.3333 6.00016C10.3333 6.92016 9.58668 7.66683 8.66668 7.66683Z" fill="white"/>
</g>
</svg>
