<svg width="17" height="16" viewBox="0 0 17 16" fill="none" xmlns="http://www.w3.org/2000/svg">
<g id="Group 63">
<path id="Vector" d="M13.4867 10.173L11.7934 9.97968C11.3867 9.93301 10.9867 10.073 10.7 10.3597L9.47338 11.5863C7.58671 10.6263 6.04005 9.08635 5.08005 7.19301L6.31338 5.95968C6.60005 5.67301 6.74005 5.27301 6.69338 4.86635L6.50005 3.18635C6.42005 2.51301 5.85338 2.00635 5.17338 2.00635H4.02005C3.26671 2.00635 2.64005 2.63301 2.68671 3.38635C3.04005 9.07968 7.59338 13.6263 13.28 13.9797C14.0334 14.0263 14.66 13.3997 14.66 12.6463V11.493C14.6667 10.8197 14.16 10.253 13.4867 10.173Z" fill="white"/>
</g>
</svg>
