<svg width="80" height="80" viewBox="0 0 80 80" fill="none" xmlns="http://www.w3.org/2000/svg">
<rect width="80" height="80" rx="24" fill="#043A3A"/>
<path d="M59.0148 32.9478C62.425 32.9665 63.91 28.1268 60.85 26.4003L58.5475 25.0713C55.1987 23.104 51.6152 27.7315 54.2463 30.52L51.7675 34.8145C49.969 33.9798 48.0828 33.3489 46.144 32.9335C46.0221 32.9066 45.8954 32.9108 45.7756 32.9458C45.6558 32.9808 45.5467 33.0454 45.4585 33.1338C42.8417 35.7295 41.9695 39.9085 41.4737 44.5075C40.4867 43.3473 38.959 42.6168 37.3532 42.7135C37.0009 42.0905 36.5103 41.5566 35.9192 41.153C35.3281 40.7494 34.6523 40.4868 33.9437 40.3855C33.964 39.3151 34.1557 38.255 34.5115 37.2453C39.1247 38.5203 43.7267 35.0485 44.2885 30.1105C44.3026 30.0054 44.2942 29.8985 44.264 29.7969C44.2337 29.6953 44.1823 29.6013 44.113 29.521C38.8105 23.6695 29.8285 28.7875 33.238 36.3783C33.006 36.9691 32.8237 37.5782 32.6927 38.1993C32.095 37.1973 31.0547 36.1233 30.0422 35.4955C28.9412 29.1835 20.5247 27.9505 17.5697 33.6228C17.5158 33.7278 17.4874 33.8441 17.4869 33.9621C17.4864 34.0802 17.5137 34.1968 17.5667 34.3023C19.855 38.9928 25.7717 40.024 29.1932 36.7308C30.5305 37.5085 31.7687 39.2493 32.1437 40.486C30.5822 40.873 29.296 42.0333 28.792 43.5858C26.4895 44.0058 24.7345 45.9783 24.6115 48.3348C21.4735 47.569 18.7742 51.0558 20.2682 53.902H18.2365C17.2675 53.9133 17.2367 55.384 18.2365 55.402H61.7365C62.7055 55.39 62.7362 53.9193 61.7365 53.902H60.6235C61.1493 51.523 59.635 49.0585 57.3167 48.4315C57.1829 48.0736 56.9977 47.7371 56.767 47.4325C58.729 45.5095 59.9012 43.6938 60.4135 41.764C60.4457 41.6428 60.4471 41.5155 60.4175 41.3937C60.3879 41.2718 60.3283 41.1594 60.244 41.0665C58.9132 39.6001 57.4241 38.2856 55.804 37.147L58.279 32.8593C58.5205 32.914 58.7665 32.9478 59.0148 32.9478ZM35.3672 29.7603C37.3112 27.838 40.9113 28.2415 42.7495 30.2515C42.184 34.057 38.5938 36.7143 35.1265 35.848C35.9172 34.3895 37.0489 33.1439 38.425 32.2173C38.5906 32.1069 38.7056 31.9352 38.7446 31.74C38.7836 31.5449 38.7435 31.3422 38.6331 31.1766C38.5785 31.0946 38.5082 31.0242 38.4263 30.9694C38.3444 30.9145 38.2525 30.8764 38.1559 30.857C37.9608 30.818 37.7581 30.8581 37.5925 30.9685C36.2107 31.8939 35.0426 33.1039 34.1665 34.5175C33.7517 32.7603 34.1687 30.919 35.3665 29.7595L35.3672 29.7603ZM24.598 35.5053C25.09 35.4835 26.3267 35.4948 27.7105 35.998C25.075 38.164 20.8195 37.1808 19.0922 33.9738C21.2132 30.3955 26.6432 30.7518 28.2317 34.594C26.5817 33.994 25.114 33.9805 24.529 34.0068C23.5442 34.0705 23.6132 35.5293 24.598 35.5053ZM51.1765 53.902H22.1335C20.0245 51.9145 22.5767 48.5995 25.051 50.1145C25.5842 50.4693 26.3305 49.942 26.1775 49.3218C25.7237 47.239 27.313 45.145 29.4437 45.0123C29.6075 45.0003 29.7629 44.9349 29.8859 44.8261C30.0089 44.7173 30.0928 44.5711 30.1247 44.41C30.37 43.1718 31.3255 42.2253 32.5135 41.935C32.6252 42.8403 33.9287 42.8403 33.997 41.9268C34.4899 42.04 34.9486 42.2691 35.3351 42.5953C35.7216 42.9214 36.0247 43.335 36.2192 43.8018C36.3482 44.1153 36.6707 44.2968 37.0067 44.2593C39.0482 43.8843 41.0477 45.4375 41.1962 47.5038C41.2247 48.0798 41.9538 48.4038 42.4 48.04C44.4115 46.396 47.6057 47.992 47.539 50.5713C47.509 51.0513 47.3312 51.646 47.8713 51.9093C48.0109 51.9832 48.1704 52.0111 48.3269 51.989C48.4834 51.9669 48.629 51.896 48.7428 51.7863C49.0533 51.4863 49.4537 51.3213 49.8715 51.3213C51.16 51.2845 51.9707 52.8835 51.1765 53.902ZM59.224 52.9495C59.224 53.2825 59.1565 53.5968 59.059 53.902H52.8273C53.3493 52.468 52.579 50.7948 51.2687 50.1678C50.8435 47.1228 55.2288 46.2453 55.9975 49.2378C56.0313 49.3799 56.1059 49.509 56.2121 49.6094C56.3183 49.7097 56.4514 49.7768 56.5952 49.8025C57.3332 49.9348 58.0011 50.3227 58.4818 50.8981C58.9624 51.4735 59.2252 52.1997 59.224 52.9495ZM58.849 41.767C58.3503 43.309 57.316 44.8105 55.654 46.4245C53.1445 44.8323 49.6165 46.849 49.7402 49.831C49.4867 49.8415 49.2378 49.8768 48.9978 49.9473C48.6783 47.1033 45.5567 45.1165 42.8192 46.1313C43.2527 41.4258 43.9158 37.0645 46.237 34.4905C47.8803 34.8703 49.4809 35.4153 51.0145 36.1173L50.5428 36.9348C49.0952 39.5425 53.0177 41.8278 54.5778 39.2703L55.0518 38.449C56.4254 39.4254 57.6975 40.5365 58.849 41.767ZM53.2803 38.5188C52.7928 39.3888 51.3257 38.5458 51.8402 37.687L55.4627 31.4148L56.9012 32.2458L53.2803 38.5188ZM55.78 29.866C53.6125 28.6158 55.6405 25.1185 57.7975 26.371L60.1 27.7C62.26 28.9698 60.2575 32.434 58.0825 31.195L55.78 29.866Z" fill="white"/>
</svg>
