<svg width="80" height="80" viewBox="0 0 80 80" fill="none" xmlns="http://www.w3.org/2000/svg">
<rect width="80" height="80" rx="24" fill="#043A3A"/>
<g clip-path="url(#clip0_401_167)">
<path d="M51.1045 31.188C51.1045 31.6179 51.3911 31.9045 51.8209 31.9045H52.5373C52.9672 31.9045 53.2538 31.6179 53.2538 31.188C53.2538 30.7582 52.9672 30.4716 52.5373 30.4716H51.8209C51.4627 30.4716 51.1045 30.7582 51.1045 31.188ZM53.9702 31.188C53.9702 31.6179 54.2567 31.9045 54.6866 31.9045H55.403C55.8329 31.9045 56.1194 31.6179 56.1194 31.188C56.1194 30.7582 55.8329 30.4716 55.403 30.4716H54.6866C54.3284 30.4716 53.9702 30.7582 53.9702 31.188ZM58.2687 30.4716H57.5523C57.1224 30.4716 56.8358 30.7582 56.8358 31.188C56.8358 31.6179 57.1224 31.9045 57.5523 31.9045H58.2687C58.6985 31.9045 58.9851 31.6179 58.9851 31.188C58.9851 30.7582 58.6985 30.4716 58.2687 30.4716ZM61.1343 30.4716H60.4179C59.9881 30.4716 59.7015 30.7582 59.7015 31.188C59.7015 31.6179 59.9881 31.9045 60.4179 31.9045H61.1343C61.5642 31.9045 61.8508 31.6179 61.8508 31.188C61.8508 30.7582 61.5642 30.4716 61.1343 30.4716ZM60.2746 22.2328L59.7015 22.591C59.3433 22.806 59.2717 23.2358 59.4149 23.594C59.5582 23.8089 59.7732 23.9522 60.0597 23.9522C60.203 23.9522 60.2746 23.9522 60.4179 23.8806L61.0627 23.5224C61.4209 23.3074 61.4926 22.8776 61.3493 22.5194C61.0627 22.1612 60.6329 22.0179 60.2746 22.2328ZM52.8239 26.5313L52.1791 26.8895C51.8209 27.1045 51.7493 27.5343 51.8926 27.8925C52.1075 28.2507 52.5373 28.3224 52.8955 28.1791L53.5403 27.8209C53.8985 27.606 53.9702 27.1761 53.8269 26.8179C53.612 26.4597 53.1821 26.3164 52.8239 26.5313ZM57.8388 23.6657L57.194 24.0239C56.8358 24.2388 56.7642 24.6686 56.9075 25.0268C57.1224 25.3851 57.5523 25.4567 57.9105 25.3134L58.5552 24.9552C58.9135 24.7403 58.9851 24.3104 58.8418 23.9522C58.6269 23.594 58.1254 23.4507 57.8388 23.6657ZM55.3314 25.0985L54.6866 25.4567C54.3284 25.6716 54.2567 26.1015 54.4 26.4597C54.6149 26.8179 55.0448 26.8895 55.403 26.7463L56.0478 26.388C56.406 26.1731 56.4776 25.7433 56.3343 25.3851C56.1194 25.0268 55.6896 24.8836 55.3314 25.0985ZM56.0478 36.7761C55.8329 37.1343 55.9761 37.5642 56.3343 37.7791L56.9791 38.1373C57.3373 38.3522 57.7672 38.2089 57.9821 37.8507C58.197 37.4925 58.0538 37.0627 57.6955 36.8477L57.0508 36.4895C56.6926 36.3463 56.2627 36.4179 56.0478 36.7761ZM53.5403 35.3433C53.3254 35.7015 53.4687 36.1313 53.8269 36.3463L54.4717 36.7045C54.8299 36.9194 55.2597 36.7761 55.4746 36.4179C55.6896 36.0597 55.5463 35.6298 55.1881 35.4149L54.5433 35.0567C54.1851 34.9134 53.7552 34.9851 53.5403 35.3433ZM60.9911 39.6418C60.7761 40 60.9194 40.4298 61.2776 40.6448L61.9224 41.003C62.2806 41.2179 62.7105 41.0746 62.9254 40.7164C63.1403 40.3582 62.997 39.9283 62.6388 39.7134L61.994 39.3552C61.6358 39.2119 61.206 39.2836 60.9911 39.6418ZM58.4836 38.2089C58.2687 38.5671 58.412 38.997 58.7702 39.2119L59.4149 39.5701C59.7732 39.7851 60.203 39.6418 60.4179 39.2836C60.6329 38.9254 60.4896 38.4955 60.1314 38.2806L59.4866 37.9224C59.1284 37.7791 58.6985 37.8507 58.4836 38.2089ZM18.2209 31.188C18.2209 31.6179 18.5075 31.9045 18.9373 31.9045H19.6538C20.0836 31.9045 20.3702 31.6179 20.3702 31.188C20.3702 30.7582 20.0836 30.4716 19.6538 30.4716H18.9373C18.5791 30.4716 18.2209 30.7582 18.2209 31.188ZM21.803 31.9045H22.5194C22.9493 31.9045 23.2358 31.6179 23.2358 31.188C23.2358 30.7582 22.9493 30.4716 22.5194 30.4716H21.803C21.3732 30.4716 21.0866 30.7582 21.0866 31.188C21.0866 31.6179 21.4448 31.9045 21.803 31.9045ZM26.8179 31.188C26.8179 31.6179 27.1045 31.9045 27.5343 31.9045H28.2508C28.6806 31.9045 28.9672 31.6179 28.9672 31.188C28.9672 30.7582 28.6806 30.4716 28.2508 30.4716H27.5343C27.1761 30.4716 26.8179 30.7582 26.8179 31.188ZM25.3851 30.4716H24.6687C24.2388 30.4716 23.9523 30.7582 23.9523 31.188C23.9523 31.6179 24.2388 31.9045 24.6687 31.9045H25.3851C25.8149 31.9045 26.1015 31.6179 26.1015 31.188C26.1015 30.7582 25.8149 30.4716 25.3851 30.4716ZM21.5881 24.8836L22.2329 25.2418C22.5911 25.4567 23.0209 25.3134 23.2358 24.9552C23.4508 24.597 23.3075 24.1671 22.9493 23.9522L22.3045 23.594C21.9463 23.3791 21.5164 23.5224 21.3015 23.8806C21.0866 24.2388 21.2299 24.7403 21.5881 24.8836ZM27.8926 26.8895L27.2478 26.5313C26.8896 26.3164 26.4597 26.4597 26.2448 26.8179C26.0299 27.1761 26.1732 27.606 26.5314 27.8209L27.1761 28.1791C27.5343 28.394 27.9642 28.2507 28.1791 27.8925C28.3224 27.5343 28.2508 27.1045 27.8926 26.8895ZM25.3851 25.4567L24.7403 25.0985C24.3821 24.8836 23.9523 25.0268 23.7373 25.3851C23.5224 25.7433 23.6657 26.1731 24.0239 26.388L24.6687 26.7463C25.0269 26.9612 25.4567 26.8179 25.6717 26.4597C25.8866 26.1015 25.7433 25.6716 25.3851 25.4567ZM20.4418 22.591L19.797 22.2328C19.4388 22.0179 19.009 22.1612 18.8657 22.5194C18.6508 22.8776 18.794 23.3074 19.1523 23.5224L19.797 23.8806C20.1552 24.0955 20.5851 23.9522 20.8 23.594C20.8717 23.2358 20.8 22.806 20.4418 22.591ZM25.6 35.1283L24.9552 35.4866C24.597 35.7015 24.5254 36.1313 24.6687 36.4895C24.8836 36.8477 25.3135 36.9194 25.6717 36.7761L26.3164 36.4179C26.6746 36.203 26.7463 35.7731 26.603 35.4149C26.3881 34.9851 25.9582 34.9134 25.6 35.1283ZM17.5045 39.7851C17.1463 40 17.0746 40.4298 17.2179 40.788C17.4329 41.0746 17.8627 41.2179 18.2209 41.003L18.8657 40.6448C19.2239 40.4298 19.2955 40 19.1523 39.6418C18.9373 39.2836 18.5075 39.2119 18.1493 39.3552L17.5045 39.7851ZM23.0926 36.5612L22.4478 36.9194C22.0896 37.1343 22.0179 37.5642 22.1612 37.9224C22.4478 38.2089 22.8776 38.3522 23.1642 38.1373L23.809 37.7791C24.1672 37.5642 24.2388 37.1343 24.0955 36.7761C23.8806 36.4179 23.4508 36.3463 23.0926 36.5612ZM20.5851 37.994L19.9403 38.3522C19.5821 38.5671 19.5105 38.997 19.6538 39.3552C19.8687 39.7134 20.2985 39.7851 20.6567 39.6418L21.3015 39.2836C21.6597 39.0686 21.7314 38.6388 21.5881 38.2806C21.3732 37.8507 20.9433 37.7791 20.5851 37.994Z" fill="white"/>
<path d="M16.2866 62.4956C16.2866 62.9254 16.5731 63.212 17.003 63.212C31.7612 63.212 49.3134 63.212 62.997 63.212C63.4269 63.212 63.7134 62.9254 63.7134 62.4956C63.7134 62.0657 63.4269 61.7791 62.997 61.7791H54.0418V60.6329C57.6239 60.4179 60.4895 57.4806 60.4895 53.8269C60.4895 53.397 60.1313 53.1105 59.7731 53.1105C57.4089 53.1105 55.2597 54.3284 54.1134 56.1911V54.4C55.403 53.9702 56.7642 52.6806 57.6239 51.0329C58.9851 48.3821 58.7701 45.5164 56.9791 43.0806C56.8358 42.8657 56.4776 42.7224 56.191 42.7941C55.9045 42.8657 55.6895 43.1523 55.6895 43.4388C55.6895 43.4388 55.4746 46.2329 53.397 46.5911C51.9642 46.8776 50.9612 48.1672 50.6746 49.9582C50.4597 51.5344 50.8895 53.612 52.394 54.3284C52.4657 54.4 52.5373 54.4 52.6806 54.4V55.6896C51.4627 54.1135 49.5284 53.0388 47.3075 53.0388C46.8776 53.0388 46.591 53.3254 46.591 53.7553C46.591 57.2657 49.2418 60.1314 52.6806 60.4896V61.6358H43.3672V51.1045C44.2985 50.6747 44.9433 49.815 44.9433 48.7403V44.3702C45.803 44.012 46.4478 43.2955 46.6627 42.3642L49.3134 32.2627C49.6716 30.7582 49.7433 29.2538 49.3851 27.7493L48.5254 23.809C48.2388 22.5194 47.1642 21.6597 45.8746 21.6597H43.4388V20.1553C43.4388 18.2926 41.9343 16.7881 40.0716 16.7881C38.2089 16.7881 36.7045 18.2926 36.7045 20.1553V21.6597H34.2687C32.9791 21.6597 31.8328 22.5194 31.6179 23.809L30.7582 27.7493C30.4 29.2538 30.4716 30.8299 30.8298 32.2627L33.4806 42.3642C33.6955 43.2955 34.3403 44.012 35.2 44.3702V48.812C35.2 49.8866 35.8448 50.8179 36.7761 51.1761V61.8508H27.1045V60.7045C30.6866 60.4896 33.5522 57.5523 33.5522 53.8985C33.5522 52.2508 29.0388 53.397 27.1045 56.2627V54.4717C30.1851 53.4687 33.4806 47.8806 29.9701 43.1523C29.8269 42.9373 29.4686 42.7941 29.1821 42.8657C28.8955 42.9373 28.6806 43.2239 28.6806 43.5105C28.6806 43.5105 28.4657 46.3045 26.3881 46.6627C24.9552 46.9493 23.9522 48.2388 23.6657 50.0299C23.4507 51.606 23.8806 53.6836 25.3851 54.4C25.4567 54.4717 25.5284 54.4717 25.6716 54.4717V55.7612C24.3821 54.1851 22.4478 53.1105 20.2985 53.1105C19.8686 53.1105 19.5821 53.397 19.5821 53.8269C19.5821 57.3373 22.2328 60.203 25.6716 60.5612V61.7075H17.0746C16.6448 61.7791 16.2866 62.0657 16.2866 62.4956ZM48.0239 54.615C50.3881 54.9732 52.2507 56.8358 52.5373 59.1284C50.1731 58.8418 48.3104 56.9791 48.0239 54.615ZM58.9851 54.615C58.6269 56.9791 56.7642 58.8418 54.4716 59.1284C54.7582 56.8358 56.6209 54.9732 58.9851 54.615ZM52.0358 50.1732C52.1791 49.2418 52.6089 48.1672 53.6119 48.0239C55.2597 47.6657 56.191 46.5194 56.6209 45.4448C57.4089 47.5224 56.8358 49.3851 56.3343 50.3881C55.4746 52.0358 54.0418 53.1821 53.2537 53.1821C53.1821 53.1821 53.1104 53.1821 53.0388 53.1105C52.2507 52.7523 51.8209 51.4627 52.0358 50.1732ZM21.0149 54.615C23.3791 54.9732 25.2418 56.8358 25.5284 59.1284C23.2358 58.8418 21.3731 56.9791 21.0149 54.615ZM31.9761 54.615C31.6179 56.9791 29.7552 58.8418 27.4627 59.1284C27.8209 56.8358 29.6836 54.9732 31.9761 54.615ZM25.0985 50.1732C25.5284 46.806 28.1075 49.0269 29.6836 45.4448C31.1881 49.2418 27.9642 53.1821 26.3164 53.1821C26.2448 53.1821 26.1731 53.1821 26.1015 53.1105C25.3134 52.7523 24.8836 51.4627 25.0985 50.1732ZM47.1642 24.0955L48.0239 28.0358C48.3104 29.3254 48.3104 30.615 47.9522 31.9045L45.3015 42.006C45.0866 42.7224 44.5134 43.2239 43.797 43.2239H40.7164V38.1373C42.3642 37.7791 43.5821 36.3463 43.5821 34.6269V30.3284C43.5821 28.609 42.3642 27.1761 40.7164 26.8179V23.0926C40.8597 23.0926 46.0895 23.0926 45.8746 23.0926C46.4478 23.0926 47.0209 23.5224 47.1642 24.0955ZM39.9284 28.1791C41.0746 28.1791 42.0776 29.1105 42.0776 30.3284V34.6269C42.0776 35.7732 41.1463 36.7761 39.9284 36.7761C38.7821 36.7761 37.7791 35.8448 37.7791 34.6269V30.3284C37.8507 29.1105 38.7821 28.1791 39.9284 28.1791ZM38.1373 20.1553C38.1373 19.0806 38.997 18.2209 40.0716 18.2209C41.1463 18.2209 42.006 19.0806 42.006 20.1553V21.6597C41.9343 21.6597 38.1373 21.6597 38.2089 21.6597V20.1553H38.1373ZM32.191 31.9045C31.8328 30.615 31.8328 29.3254 32.1194 28.0358L32.9791 24.0955C33.1224 23.5224 33.6239 23.0926 34.2687 23.0926C34.4119 23.0926 39.3552 23.0926 39.2119 23.0926V26.8179C37.5642 27.1761 36.3463 28.609 36.3463 30.3284V34.6269C36.3463 36.3463 37.5642 37.7791 39.2119 38.1373V43.2239H36.3463C35.6298 43.2239 34.9851 42.7224 34.8418 42.006L32.191 31.9045ZM36.5612 44.5851H43.5104V48.7403C43.5104 49.3851 43.0089 49.8866 42.3642 49.8866H37.7075C37.0627 49.8866 36.5612 49.3851 36.5612 48.7403V44.5851ZM38.1373 51.3194H41.9343V61.7791H38.1373V51.3194Z" fill="white"/>
</g>
<defs>
<clipPath id="clip0_401_167">
<rect width="48" height="48" fill="white" transform="translate(16 16)"/>
</clipPath>
</defs>
</svg>
